{"title":"Pirates of the Caribbean-4 On Stranger Tides  2011 HQ 1080p Blu-","uid":15897009,"size":12427957378,"categoryP":"video","categoryS":"hd___movies","magnet":"?xt=urn:btih:1936a1ff21dd6fe353a5bda74e2b30ab214c5097&amp;dn=Pirates+of+the+Caribbean-4+On+Stranger+Tides++2011+HQ+1080p+Blu-&amp;tr=udp%3A%2F%2Ftracker.leechers-paradise.org%3A6969&amp;tr=udp%3A%2F%2Fzer0day.ch%3A1337&amp;tr=udp%3A%2F%2Fopen.demonii.com%3A1337&amp;tr=udp%3A%2F%2Ftracker.coppersurfer.tk%3A6969&amp;tr=udp%3A%2F%2Fexodus.desync.com%3A6969","seeders":8,"leechers":13,"uploader":"SaM","files":3,"time":1474820870,"description":"HQ 1080p Blu-ray Rip x264\r\n\r\nFrançais DTS High Resolution Audio 7.1 Audio\r\n\r\nEnglish &amp; French Subtitle\r\n\r\n{ SCREENSHOTS}\r\n \nhttps://extraimago.com/image/w9WA \nhttps://extraimago.com/image/w9Wv \nhttps://extraimago.com/image/w9Wu \nhttps://extraimago.com/image/w9WV \nhttps://extraimago.com/image/w9W6 \nhttps://extraimago.com/image/w9Wx \nhttps://extraimago.com/image/w9Wt \nhttps://extraimago.com/image/w9Wo \nhttps://extraimago.com/image/w9Wk \nhttps://extraimago.com/image/w9WH \nhttps://extraimago.com/image/w9WF \nhttps://extraimago.com/image/w9WD \nhttps://extraimago.com/image/w9W5 \nhttps://extraimago.com/image/w9Wg \nhttps://extraimago.com/image/w9WX \nhttps://extraimago.com/image/w9WP\r\n\r\nSpecs:\r\nSource: French BD50 @ DDR\r\n\r\nFormat : Matroska\r\nFormat version : Version 4 / Version 2\r\nFile size : 11.5 GiB\r\nDuration : 2 h 16 min\r\nOverall bit rate : 12.1 Mb/s\r\nEncoded date : UTC 2016-09-24 13:13:13\r\nWriting application : mkvmerge v9.4.2 ('So High') 64bit\r\nWriting library : libebml v1.3.4 + libmatroska v1.4.5\r\n\r\nVideo\r\nID : 1\r\nFormat : AVC\r\nFormat/Info : Advanced Video Codec\r\nFormat profile :   \r\nFormat settings, CABAC : Yes\r\nFormat settings, ReFrames : 5 frames\r\nCodec ID : V_MPEG4/ISO/AVC\r\nDuration : 2 h 16 min\r\nBit rate : 10.0 Mb/s\r\nWidth : 1 920 pixels\r\nHeight : 800 pixels\r\nDisplay aspect ratio : 2.40:1\r\nFrame rate mode : Constant\r\nFrame rate : 23.976 (24000/1001) FPS\r\nColor space : YUV\r\nChroma subsampling : 4:2:0\r\nBit depth : 8 bits\r\nScan type : Progressive\r\nBits/(Pixel*Frame) : 0.272\r\nStream size : 9.55 GiB (83%)\r\nLanguage : English\r\nDefault : Yes\r\nForced : No\r\nColor range : Limited\r\nColor primaries : BT.709\r\nTransfer characteristics : BT.709\r\nMatrix coefficients : BT.709\r\n\r\nAudio\r\nID : 2\r\nFormat : DTS\r\nFormat/Info : Digital Theater Systems\r\nFormat profile : HRA / Core\r\nMode : 16\r\nFormat settings, Endianness : Big\r\nCodec ID : A_DTS\r\nDuration : 2 h 16 min\r\nBit rate mode : Constant\r\nBit rate : 2 046 kb/s / 1 509 kb/s\r\nChannel(s) : 8 channels / 6 channels\r\nChannel positions : Front: L C R, Side: L R, Back: L R, LFE / Front: L C R, Side: L R, LFE\r\nSampling rate : 48.0 kHz\r\nFrame rate : 93.750 FPS (512 spf)\r\nBit depth : 24 bits\r\nCompression mode : Lossy\r\nStream size : 1.95 GiB (17%)\r\nLanguage : French\r\nDefault : Yes\r\nForced : No","torrent":{"xt":"urn:btih:1936a1ff21dd6fe353a5bda74e2b30ab214c5097","amp;dn":"Pirates+of+the+Caribbean-4+On+Stranger+Tides++2011+HQ+1080p+Blu-","amp;tr":["udp%3A%2F%2Ftracker.leechers-paradise.org%3A6969","udp%3A%2F%2Fzer0day.ch%3A1337","udp%3A%2F%2Fopen.demonii.com%3A1337","udp%3A%2F%2Ftracker.coppersurfer.tk%3A6969","udp%3A%2F%2Fexodus.desync.com%3A6969"],"infoHash":"1936a1ff21dd6fe353a5bda74e2b30ab214c5097","infoHashBuffer":{"type":"Buffer","data":[25,54,161,255,33,221,111,227,83,165,189,167,78,43,48,171,33,76,80,151]},"announce":[],"urlList":[]}}